<mxfile host="app.diagrams.net" modified="2021-06-22T10:07:36.332Z" agent="5.0 (Windows NT 10.0; Win64; x64) AppleWebKit/537.36 (KHTML, like Gecko) Chrome/91.0.4472.114 Safari/537.36" etag="FKCbbdMP5Emebs0bAi5n" version="14.6.1" type="github">
  <diagram id="Rvbjt1M6oml_VFShBWqC" name="Page-1">
    <mxGraphModel dx="1059" dy="540" grid="1" gridSize="10" guides="1" tooltips="1" connect="1" arrows="1" fold="1" page="1" pageScale="1" pageWidth="1654" pageHeight="1169" math="0" shadow="0">
      <root>
        <mxCell id="0" />
        <mxCell id="1" parent="0" />
        <mxCell id="l0OHZ7WAltnEH0PgSwDT-1" value="&lt;font face=&quot;Erased Typewriter&quot; data-font-src=&quot;https://fonts.googleapis.com/css?family=Erased+Typewriter&quot; style=&quot;font-size: 43px&quot;&gt;sdfsdfdsf&lt;/font&gt;" style="text;html=1;strokeColor=none;fillColor=none;align=center;verticalAlign=middle;whiteSpace=wrap;rounded=0;" vertex="1" parent="1">
          <mxGeometry x="360" y="240" width="40" height="20" as="geometry" />
        </mxCell>
      </root>
    </mxGraphModel>
  </diagram>
</mxfile>
